<?xml version="1.0" encoding="UTF-8"?>
<svg id="Camada_2" data-name="Camada 2" xmlns="http://www.w3.org/2000/svg" viewBox="0 0 283.07 79.81">
  <defs>
    <style>
      .cls-1 {
        fill: #000;
        stroke-width: 0px;
      }
    </style>
  </defs>
  <g id="Camada_1-2" data-name="Camada 1">
    <g>
      <polygon class="cls-1" points="231.26 16.53 231.26 10.8 224.17 10.8 207.65 30.44 191.13 10.8 184.04 10.8 184.04 16.53 200.14 35.67 200.14 39.25 184.04 58.39 184.04 64.12 191.13 64.12 207.65 44.48 224.17 64.12 231.26 64.12 231.26 58.39 215.16 39.25 215.16 35.67 231.26 16.53"/>
      <path class="cls-1" d="M185.19,43.11h-40.96c.6,6.85,4.37,11.86,10.34,13.46,9.15,2.45,16.57-.1,21.64-8.3h7.41c-1.2,10.06-14.58,18.29-25.69,16.74-15.89-2.22-24.64-13.54-22.65-30.14,1.68-13.97,13.84-23.93,27.37-22.44,13.96,1.54,23.98,14.83,22.53,30.69ZM177.02,34.94c-1.66-9.67-9.77-15.9-18.48-14.79-8.24,1.05-14.68,7.73-14.21,14.79h32.69Z"/>
      <path class="cls-1" d="M259.88,12.27c-5.74,0-10.99,2.09-15.04,5.55v-7.02h-8.15v24.66h0v44.35h8.15v-26.71c4.05,3.46,9.3,5.55,15.04,5.55,12.81,0,23.19-10.38,23.19-23.19s-10.38-23.19-23.19-23.19ZM259.88,49.86c-7.95,0-14.4-6.45-14.4-14.4s6.45-14.4,14.4-14.4,14.4,6.45,14.4,14.4-6.45,14.4-14.4,14.4Z"/>
      <path class="cls-1" d="M0,0h34.96c24.96,0,30.1,13.49,30.1,32.02,0,27.16-13.76,32.21-30.1,32.21H0V0ZM32.85,49.55c6.7,0,12.94-2.57,12.94-17.89,0-14.31-5.87-17.07-13.03-17.07h-13.76v34.96h13.86Z"/>
      <path class="cls-1" d="M66.8,0h34.41c16.15,0,27.07,2.11,27.07,14.96,0,6.61-3.12,12.57-10,12.57-.18,0-.37.09-.37.27s.18.28.37.28c10.74,0,13.58,9.63,13.58,16.43,0,14.68-10.09,19.73-30.1,19.73h-34.96V0ZM102.31,26.61c5.05,0,7.43-1.01,7.43-5.87,0-5.14-2.84-6.06-8.17-6.06h-15.78v11.93h16.52ZM105.34,49.55c4.22,0,7.25-1.19,7.25-6.33,0-4.5-2.29-5.87-7.07-5.87h-19.73v12.2h19.54Z"/>
    </g>
  </g>
</svg>