<?xml version="1.0" encoding="UTF-8"?>
<svg id="Camada_2" data-name="Camada 2" xmlns="http://www.w3.org/2000/svg" viewBox="0 0 253.87 70.88">
  <defs>
    <style>
      .cls-1 {
        fill: #89f65b;
      }

      .cls-1, .cls-2 {
        stroke-width: 0px;
      }

      .cls-2 {
        fill: #fff;
      }
    </style>
  </defs>
  <g id="Camada_1-2" data-name="Camada 1">
    <g>
      <path class="cls-2" d="M0,0h34.96c24.96,0,30.1,13.49,30.1,32.02,0,27.16-13.76,32.21-30.1,32.21H0V0ZM32.85,49.55c6.7,0,12.94-2.57,12.94-17.89,0-14.31-5.87-17.07-13.03-17.07h-13.76v34.96h13.86Z"/>
      <path class="cls-2" d="M66.8,0h34.41c16.15,0,27.07,2.11,27.07,14.96,0,6.61-3.12,12.57-10,12.57-.18,0-.37.09-.37.27s.18.28.37.28c10.74,0,13.58,9.63,13.58,16.43,0,14.68-10.09,19.73-30.1,19.73h-34.96V0ZM102.31,26.61c5.05,0,7.43-1.01,7.43-5.87,0-5.14-2.84-6.06-8.17-6.06h-15.78v11.93h16.52ZM105.34,49.55c4.22,0,7.25-1.19,7.25-6.33,0-4.5-2.29-5.87-7.07-5.87h-19.73v12.2h19.54Z"/>
      <polygon class="cls-1" points="230.55 57.68 245.7 39.67 245.7 36.3 230.55 18.3 230.55 12.91 237.23 12.91 253.87 32.7 253.87 43.27 253.87 43.32 253.83 43.32 237.23 63.06 230.55 63.06 230.55 57.68"/>
      <polygon class="cls-1" points="221.3 70.88 212.31 70.88 219.13 5.09 228.12 5.09 221.3 70.88"/>
      <polygon class="cls-1" points="158.39 57.68 143.25 39.67 143.25 36.3 158.39 18.3 158.39 12.91 151.72 12.91 135.08 32.7 135.08 43.27 135.08 43.32 135.11 43.32 151.72 63.06 158.39 63.06 158.39 57.68"/>
      <polygon class="cls-2" points="209.87 18.3 209.87 12.91 203.2 12.91 187.66 31.38 172.12 12.91 165.45 12.91 165.45 18.3 180.6 36.3 180.6 39.67 165.45 57.68 165.45 63.06 172.12 63.06 187.66 44.59 203.2 63.06 209.87 63.06 209.87 57.68 194.73 39.67 194.73 36.3 209.87 18.3"/>
    </g>
  </g>
</svg>