<?xml version="1.0" encoding="UTF-8"?>
<svg id="Camada_2" data-name="Camada 2" xmlns="http://www.w3.org/2000/svg" viewBox="0 0 112.59 62.36">
  <defs>
    <style>
      .cls-1 {
        fill: #000;
        stroke-width: 0px;
      }
    </style>
  </defs>
  <g id="Camada_1-2" data-name="Camada 1">
    <g>
      <polygon class="cls-1" points="90.49 49.84 104.84 32.77 104.84 29.58 90.49 12.52 90.49 7.41 96.81 7.41 112.59 26.17 112.59 36.19 112.59 36.23 112.55 36.23 96.81 54.95 90.49 54.95 90.49 49.84"/>
      <polygon class="cls-1" points="81.72 62.36 73.2 62.36 79.66 0 88.18 0 81.72 62.36"/>
      <polygon class="cls-1" points="22.1 49.84 7.75 32.77 7.75 29.58 22.1 12.52 22.1 7.41 15.78 7.41 0 26.17 0 36.19 0 36.23 .04 36.23 15.78 54.95 22.1 54.95 22.1 49.84"/>
      <polygon class="cls-1" points="70.89 12.52 70.89 7.41 64.57 7.41 49.84 24.92 35.11 7.41 28.79 7.41 28.79 12.52 43.14 29.58 43.14 32.77 28.79 49.84 28.79 54.95 35.11 54.95 49.84 37.44 64.57 54.95 70.89 54.95 70.89 49.84 56.54 32.77 56.54 29.58 70.89 12.52"/>
    </g>
  </g>
</svg>